<?xml version="1.0" encoding="UTF-8"?>
<svg width="406px" height="553px" viewBox="0 0 406 553" version="1.1" xmlns="http://www.w3.org/2000/svg" xmlns:xlink="http://www.w3.org/1999/xlink">
    <!-- Generator: Sketch 48.2 (47327) - http://www.bohemiancoding.com/sketch -->
    <title>Group</title>
    <desc>Created with Sketch.</desc>
    <defs></defs>
    <g id="Artboard" stroke="none" stroke-width="1" fill="none" fill-rule="evenodd">
        <g id="Group" transform="translate(-22.000000, -17.000000)">
            <path d="M125.310001,395 L172.030006,395 L172.030006,570 L132.157505,570 L62.635006,475.029999 L62.635006,570 L15.9150047,570 L15.9150047,395 L58.1125031,395 L125.310001,486.8125 L125.310001,395 Z M363.475624,570 L306.270622,570 L256.080624,492.685001 L256.080624,570 L207.868122,570 L207.868122,395 L256.080624,395 L256.080624,468.767502 L302.338123,395 L358.248123,395 L302.205624,479.767502 L363.475624,570 Z" id="NK" fill="#2B2B6B"></path>
            <path d="M95,175 L66.607502,121.455006 L49.1275024,121.455006 L49.1275024,175.000004 L0.915000916,175.000004 L0.915000916,3.81469727e-06 L76.7649994,3.81469727e-06 C114.4925,3.81469727e-06 141.84,25.3500023 141.84,61.9325027 C141.84,83.4075012 131.349998,101.005001 114.0625,111.355 L148.810001,175.000004 L95,175 Z M49.1275024,42.8425064 L49.1275024,80.8425064 L71.1500015,80.8425064 C84.6275024,80.8425064 92.3850021,72.7275047 92.3850021,61.7875061 C92.3850021,50.8500061 84.6275024,42.8425064 71.1500015,42.8425064 L49.1275024,42.8425064 Z M219.868126,133.182499 L285.960625,133.182503 L285.960625,175.000004 L171.868126,175.000004 L171.868126,3.81469727e-06 L283.845627,3.81469727e-06 L283.845627,41.6750031 L219.868126,41.6750031 L219.868126,67.4400024 L277.345627,67.4400024 L277.345627,106.985001 L219.868126,106.985001 L219.868126,133.182499 Z" id="RE" fill="#FFFFFF"></path>
            <path d="M148.150002,198 L148.150002,241.41 L100.612503,241.41 L100.612503,373 L52.1900024,373 L52.1900024,241.41 L4.65000153,241.41 L4.65000153,198 L148.150002,198 Z M272.770626,198 L321.408127,198 L321.408127,373 L272.770626,373 L272.770626,305.82 L220.255627,305.82 L220.255627,373 L171.618126,373 L171.618126,198 L220.255627,198 L220.255627,261.137501 L272.770626,261.137501 L272.770626,198 Z M357.071251,373 L357.071251,198 L405.921249,198 L405.921249,373 L357.071251,373 Z" id="THI" fill="#2B2B6B"></path>
            <path d="M388,550.920898 C388,545.305636 389.892071,540.74839 393.67627,537.249023 C397.460468,533.749657 402.200818,532 407.897461,532 C413.675485,532 418.456524,533.749657 422.240723,537.249023 C426.024921,540.74839 427.916992,545.305636 427.916992,550.920898 C427.916992,556.45478 426.045266,560.950992 422.301758,564.409668 C418.55825,567.868344 413.756865,569.597656 407.897461,569.597656 C402.119437,569.597656 397.358743,567.868344 393.615234,564.409668 C389.871726,560.950992 388,556.45478 388,550.920898 Z" id="." fill="#2B2B6B"></path>
        </g>
    </g>
</svg>