<?xml version="1.0" encoding="UTF-8"?>
<svg width="278px" height="120px" viewBox="0 0 278 120" version="1.1" xmlns="http://www.w3.org/2000/svg" xmlns:xlink="http://www.w3.org/1999/xlink" preserveAspectRatio="xMaxYMax meet">
    <!-- Generator: Sketch 48.2 (47327) - http://www.bohemiancoding.com/sketch -->
    <title>re_invent_Logo_Withe</title>
    <desc>Created with Sketch.</desc>
    <defs>
        <polygon id="path-1" points="0.06 0.442 277.719 0.442 277.719 79.94 0.06 79.94"></polygon>
    </defs>
    <g id="Page-1" stroke="none" stroke-width="1" fill="none" fill-rule="evenodd">
        <g id="re_invent_Logo_Withe">
            <polyline id="Fill-1" fill="#FFFFFE" points="79.383 65.293 92.805 65.293 103.792 96.381 115.615 65.293 128.826 65.293 107.66 119.938 99.071 119.938 79.383 65.293"></polyline>
            <path d="M126.169,32.933 L82.484,32.933 C83.115,36.785 84.8,39.849 87.541,42.123 C90.28,44.399 93.774,45.535 98.026,45.535 C103.106,45.535 107.473,43.759 111.126,40.206 L122.582,45.586 C119.726,49.636 116.306,52.633 112.321,54.576 C108.336,56.518 103.604,57.489 98.125,57.489 C89.623,57.489 82.701,54.809 77.354,49.446 C72.007,44.083 69.335,37.367 69.335,29.297 C69.335,21.028 71.998,14.163 77.33,8.7 C82.658,3.239 89.34,0.506 97.377,0.506 C105.912,0.506 112.853,3.239 118.198,8.7 C123.546,14.163 126.219,21.377 126.219,30.343 L126.169,32.933 Z M112.57,22.224 C111.672,19.203 109.901,16.745 107.256,14.852 C104.612,12.959 101.543,12.013 98.05,12.013 C94.259,12.013 90.932,13.075 88.073,15.2 C86.275,16.529 84.613,18.87 83.082,22.224 L112.57,22.224 Z" id="Fill-2" fill="#FFFFFE"></path>
            <polygon id="Fill-3" fill="#FFFFFE" points="1.598 119.938 15.196 119.938 15.196 65.744 1.598 65.744"></polygon>
            <path d="M27.522,65.744 L41.121,65.744 L41.121,71.298 C44.204,68.7 46.997,66.891 49.502,65.874 C52.004,64.857 54.566,64.35 57.186,64.35 C62.558,64.35 67.117,66.225 70.864,69.978 C74.015,73.167 75.589,77.882 75.589,84.124 L75.589,119.938 L62.141,119.938 L62.141,96.206 C62.141,89.739 61.85,85.443 61.271,83.32 C60.691,81.196 59.681,79.58 58.24,78.47 C56.797,77.357 55.017,76.803 52.897,76.803 C50.148,76.803 47.787,77.723 45.817,79.563 C43.845,81.405 42.478,83.951 41.715,87.201 C41.318,88.893 41.121,92.558 41.121,98.196 L41.121,119.938 L27.522,119.938 L27.522,65.744" id="Fill-4" fill="#FFFFFE"></path>
            <path d="M186.129,95.382 L142.444,95.382 C143.075,99.234 144.761,102.298 147.501,104.571 C150.24,106.848 153.735,107.984 157.985,107.984 C163.066,107.984 167.433,106.208 171.087,102.655 L182.542,108.034 C179.687,112.085 176.267,115.082 172.281,117.025 C168.296,118.967 163.565,119.938 158.085,119.938 C149.584,119.938 142.661,117.258 137.314,111.894 C131.968,106.531 129.295,99.815 129.295,91.746 C129.295,83.477 131.959,76.612 137.289,71.149 C142.618,65.686 149.301,62.955 157.338,62.955 C165.872,62.955 172.812,65.686 178.159,71.149 C183.505,76.612 186.179,83.826 186.179,92.791 L186.129,95.382 Z M172.531,84.673 C171.633,81.652 169.862,79.193 167.215,77.3 C164.572,75.407 161.503,74.461 158.01,74.461 C154.219,74.461 150.893,75.524 148.032,77.649 C146.235,78.977 144.573,81.319 143.043,84.673 L172.531,84.673 Z" id="Fill-5" fill="#FFFFFE"></path>
            <path d="M193.661,65.293 L207.374,65.293 L207.374,70.892 C210.482,68.271 213.298,66.449 215.824,65.423 C218.346,64.399 220.93,63.887 223.572,63.887 C228.988,63.887 233.585,65.778 237.364,69.561 C240.54,72.776 242.129,77.531 242.129,83.825 L242.129,119.938 L228.568,119.938 L228.568,96.007 C228.568,89.486 228.275,85.156 227.69,83.016 C227.106,80.874 226.087,79.245 224.633,78.124 C223.18,77.003 221.386,76.443 219.248,76.443 C216.475,76.443 214.095,77.371 212.108,79.227 C210.12,81.083 208.741,83.651 207.974,86.928 C207.573,88.634 207.374,92.33 207.374,98.014 L207.374,119.938 L193.661,119.938 L193.661,65.293" id="Fill-6" fill="#FFFFFE"></path>
            <g id="Group-12" transform="translate(0.000000, 40.000000)">
                <mask id="mask-2" fill="white">
                    <use xlink:href="#path-1"></use>
                </mask>
                <g id="Clip-8"></g>
                <polyline id="Fill-7" fill="#FFFFFE" mask="url(#mask-2)" points="255.98 5.526 269.623 5.526 269.623 25.566 277.719 25.566 277.719 37.31 269.623 37.31 269.623 79.938 255.98 79.938 255.98 37.31 248.983 37.31 248.983 25.566 255.98 25.566 255.98 5.526"></polyline>
                <polygon id="Fill-9" fill="#FFFFFE" mask="url(#mask-2)" points="1.66 79.94 15.258 79.94 15.258 25.806 1.66 25.806"></polygon>
                <path d="M27.585,25.806 L41.183,25.806 L41.183,31.361 C44.266,28.762 47.059,26.954 49.564,25.937 C52.066,24.92 54.629,24.412 57.249,24.412 C62.62,24.412 67.179,26.287 70.926,30.041 C74.077,33.229 75.652,37.945 75.652,44.187 L75.652,80 L62.203,80 L62.203,56.269 C62.203,49.801 61.913,45.505 61.333,43.383 C60.753,41.258 59.744,39.643 58.302,38.532 C56.859,37.42 55.08,36.865 52.959,36.865 C50.21,36.865 47.85,37.786 45.88,39.625 C43.907,41.468 42.541,44.014 41.778,47.264 C41.381,48.956 41.183,52.62 41.183,58.259 L41.183,80 L27.585,80 L27.585,25.806" id="Fill-10" fill="#FFFFFE" mask="url(#mask-2)"></path>
                <path d="M17.008,8.946 C17.008,13.643 13.201,17.45 8.504,17.45 C3.807,17.45 0,13.643 0,8.946 C0,4.25 3.807,0.442 8.504,0.442 C13.201,0.442 17.008,4.25 17.008,8.946" id="Fill-11" fill="#2B2B6B" mask="url(#mask-2)"></path>
            </g>
            <path d="M27.585,3.306 L41.183,3.306 L41.183,8.861 C44.266,6.262 47.059,4.454 49.564,3.437 C52.066,2.42 54.629,1.913 57.249,1.913 C62.62,1.913 70.926,7.541 70.926,7.541 L60.337,18.051 C60.337,18.051 58.895,16.489 58.302,16.032 C56.859,14.92 55.08,14.365 52.959,14.365 C50.21,14.365 47.85,15.286 45.88,17.125 C43.907,18.968 42.541,21.514 41.778,24.764 C41.381,26.456 41.183,30.12 41.183,35.759 L41.183,57.5 L27.585,57.5 L27.585,3.306" id="Fill-13" fill="#FFFFFE"></path>
        </g>
    </g>
</svg>
